<?xml version="1.0" encoding="UTF-8"?>
<svg width="165px" height="68px" viewBox="0 0 165 68" version="1.1" xmlns="http://www.w3.org/2000/svg" xmlns:xlink="http://www.w3.org/1999/xlink">
    <!-- Generator: Sketch 56.3 (81716) - https://sketch.com -->
    <title>Ford Copy 3</title>
    <desc>Created with Sketch.</desc>
    <g id="Ford-Copy-3" stroke="none" stroke-width="1" fill="none" fill-rule="evenodd">
        <g id="amazon-copy">
            <rect id="Rectangle-Copy-25" x="0" y="0" width="165" height="68"></rect>
            <g id="Group-5" transform="translate(16.000000, 16.000000)" fill="#000000" fill-rule="nonzero">
                <path d="M39.483142,5.53185811 C38.4029708,2.91106498 36.5555401,1.58309605 34.1160805,1.58309605 C31.5026419,1.58309605 29.6552112,2.91106498 28.7139728,5.53185811 L28.6088345,5.53185811 L28.6088345,2.77048604 C28.5737884,2.31611482 28.2959228,2.07135684 27.841575,2.03746728 L24.0090324,2.03746728 C23.4507979,2.03746728 23.1729323,2.31611482 23.1729323,2.80563078 L23.1729323,24.0895336 C23.2430246,24.5087601 23.4520496,24.7196285 23.9739863,24.753518 L28.0868977,24.7196285 C28.6088345,24.7196285 28.8529056,24.5087601 28.8892034,23.9840994 L28.8892034,12.7666529 C28.8541572,10.8788786 28.9229978,9.58605437 29.167069,8.92206991 C29.585119,7.52506668 30.3874246,6.89497178 31.7116669,6.89497178 C33.0008632,6.89497178 33.8382149,7.52381151 34.1160805,8.92206991 C34.2199672,9.41158587 34.2900594,10.7044101 34.2900594,12.7666529 L34.2900594,23.9840994 C34.2199672,24.4397258 34.4990844,24.7196285 35.0222728,24.753518 L39.1689787,24.7196285 C39.7259615,24.7196285 39.9349865,24.5087601 39.9349865,23.9840994 L39.9349865,12.7666529 C39.9349865,10.6341206 40.0401249,9.27100693 40.3530366,8.67731193 C40.5270155,8.1175065 40.8749733,7.69828002 41.3631156,7.38448773 C41.7811656,7.06944029 42.2693079,6.89497178 42.8262907,6.93011651 C44.1855791,6.93011651 44.9878848,7.52506668 45.1969098,8.78274614 C45.3370942,9.09779359 45.3370942,10.4257625 45.3370942,12.7679081 L45.3370942,23.9853545 C45.3370942,24.4409809 45.6162115,24.7208836 46.1031021,24.7547732 L50.2160135,24.7208836 C50.7729964,24.7208836 51.0170675,24.5100152 51.0170675,23.9853545 L51.0170675,7.06944029 C50.9131808,5.74147135 50.5289252,4.69214997 50.0057369,3.92398647 C48.8567251,2.35125956 47.28716,1.58184088 45.1956581,1.58184088 C43.9064619,1.58184088 42.8250391,1.89563316 41.8149601,2.59601753 C40.7723383,3.22485726 39.9362382,4.23903392 39.483142,5.53185811 L39.483142,5.53185811 Z M78.4118614,2.00232254 C77.853627,2.00232254 77.6446019,2.21193578 77.6446019,2.77048604 L77.6446019,5.77661609 C77.6446019,6.30002161 77.9237192,6.57992433 78.4469075,6.57992433 L85.5562615,6.57992433 L77.3667363,18.251742 C77.0538246,18.7764027 76.8785941,19.4403872 76.8785941,20.3842743 L76.8785941,23.4242939 C76.8785941,23.6690519 76.9486863,23.9150651 77.1915058,24.0204993 C77.4005308,24.2288574 77.6095558,24.2627469 77.8185808,24.1234231 C80.0490155,22.9372883 82.5235212,22.341083 85.1720059,22.3774829 C87.75165,22.4465172 90.0509252,22.9711779 92.2125193,24.1234231 L92.9096865,24.0204993 C93.1187116,23.9150651 93.2225983,23.7041967 93.2225983,23.4242939 L93.2225983,20.1759163 C93.1187116,19.6512556 92.9096865,19.2295187 92.4916365,18.9872711 C90.4351808,17.8325155 87.8217422,17.2739652 84.7201614,17.3793995 L91.7606748,7.31294309 C92.457842,6.33516635 92.8057999,5.70507145 92.8057999,5.3209897 L92.8057999,2.76923087 C92.8057999,2.21068061 92.5266826,2.00106737 92.0385404,2.00106737 L78.4118614,2.00106737 L78.4118614,2.00232254 Z M132.919829,4.09971014 C131.873452,2.38640429 130.272596,1.58309605 128.074704,1.58309605 C126.681621,1.58309605 125.532609,1.93328824 124.625165,2.66630701 C123.789065,3.36543621 123.058104,4.37835769 122.463571,5.8820503 L122.394731,5.8820503 L122.394731,2.63116227 C122.297551,2.29929235 122.005259,2.0626999 121.661266,2.03746728 L117.793677,2.03746728 C117.304283,2.03746728 117.026417,2.24708052 117.026417,2.73659648 L117.026417,23.9840994 C116.992623,24.4397258 117.270489,24.7196285 117.759883,24.753518 L121.871542,24.7196285 C122.394731,24.7196285 122.636299,24.5087601 122.707642,23.9840994 L122.707642,12.5570397 C122.707642,10.8437338 122.915416,9.5157649 123.369764,8.53798816 C123.856654,7.38448773 124.623914,6.85982704 125.775429,6.85982704 C126.993281,6.78953757 127.726746,7.48866677 128.073452,8.81789087 C128.212385,9.41158587 128.317523,10.6353758 128.35257,12.5570397 L128.35257,24.1234231 C128.35257,24.5426496 128.63419,24.7196285 129.05224,24.753518 L133.197694,24.7196285 C133.652042,24.7196285 133.931159,24.5426496 134,24.1234231 L134,10.7395548 C134,7.45352204 133.616996,5.2519554 132.919829,4.09971014 L132.919829,4.09971014 Z" id="Shape"></path>
                <path d="M19.2581841,27.0046376 C19.049805,27.3280714 19.1196806,27.6540927 19.501501,27.9775265 C24.145926,32.3482121 29.5129432,35.8140338 35.3445531,38.2083847 C41.3900431,40.6574255 47.7137879,41.8825928 54.4193532,41.8825928 C59.5110559,41.8140759 64.5709298,41.0382586 69.4638265,39.5758629 C74.744428,37.9211755 79.2963264,35.6493764 83.0134605,32.7682281 C83.6049078,32.3011897 83.8132869,31.83027 83.4302187,31.2920762 C83.1182739,30.7137765 82.5617644,30.6426211 81.9016893,30.9311241 C73.2857741,34.7140059 64.3903565,36.5511099 55.2528696,36.5511099 C48.9640626,36.5511099 42.7800691,35.6868948 36.6996412,33.9933953 C30.7939024,32.3361205 25.3036741,30.0319781 20.2663896,26.9684131 C19.8483836,26.6812038 19.5002532,26.7161347 19.2581841,27.0046376 L19.2581841,27.0046376 Z" id="Path"></path>
                <path d="M89.3925584,26.7747095 C89.1517555,26.4931348 88.6368078,26.2516063 87.7081732,26.0413638 L84.5789709,25.762292 C81.4843454,25.796081 78.9738212,26.5294266 76.9794796,27.8884938 C76.6707579,28.1675656 76.4978738,28.445386 76.6016043,28.6906688 C76.6016043,28.8984084 76.8078303,29.0035296 77.1857056,28.9321974 C82.5500524,28.3402648 85.5063706,28.445386 86.1608605,29.28135 C86.8141154,30.1511029 86.0917068,33.1132687 84.131942,38.1315555 C83.925716,38.4807081 84.0294464,38.7234881 84.2356725,38.8286093 C84.4752404,38.8999416 84.7506201,38.8623983 85.0605766,38.5845779 C86.9178459,37.0177712 88.2589326,34.7526592 89.1184136,31.7892419 C89.4271352,30.6066282 89.6000193,29.5253814 89.6691729,28.5480043 C89.667938,27.6106735 89.6000193,27.016238 89.3925584,26.7747095 Z" id="Path"></path>
                <path d="M9.1579337,10.0758769 L8.31934567,10.1815629 C6.71121502,10.3942083 5.4169272,10.7494661 4.47414335,11.1391037 C3.07565971,11.7770398 2.02742466,12.6276212 1.25788205,13.7634276 C0.419294017,14.9679935 0,16.350825 0,17.9832282 C0,20.075302 0.595046001,21.706432 1.81777766,22.9097246 C2.9011631,24.0442576 4.40509793,24.5408545 6.25802598,24.5408545 C7.37656181,24.5408545 8.32060104,24.3995154 9.15918907,24.1499436 C9.40398648,24.0799107 9.64878388,24.0086045 9.85843089,23.9016451 C10.8376205,23.4763544 11.8858556,22.6601528 13.0395418,21.49124 L14.0538818,22.8740715 L15.4523654,24.3294825 C15.8365091,24.5064747 16.1516073,24.4708216 16.4315551,24.2225232 L19.612666,21.4199337 C19.9616592,21.1741819 19.9616592,20.7488912 19.612666,20.3236005 L18.5644309,18.6924705 C18.2154377,17.9832282 18.0748361,17.2739859 18.0748361,16.4590576 L18.0748361,9.900158 C18.0748361,7.91377023 17.9693849,6.56659186 17.9003395,5.9643089 C17.6906925,4.61713053 17.0956465,3.48259751 16.2231634,2.66639587 C14.8246798,1.2491846 12.7269543,0.574322087 10.0002879,0.574322087 L9.16169982,0.574322087 C7.23972634,0.680008103 5.5964453,1.14222526 4.23311206,1.95715357 C2.30988321,3.05603347 1.15619698,4.75846966 0.736902959,7.02753569 C0.597556743,7.48847952 0.807203752,7.77115778 1.33069359,7.91377023 L5.31524212,8.30340783 C5.73453614,8.30340783 5.97933355,8.05510936 6.04963434,7.52413263 C6.25928135,6.7435841 6.64342497,6.10564803 7.30751639,5.68035732 C7.7971112,5.28944639 8.42605223,5.07680103 9.16044445,5.04242124 C9.23074524,5.00676813 9.29979066,5.00676813 9.37009145,5.00676813 C10.4534769,5.00676813 11.2581699,5.39640573 11.7477647,6.14130115 C11.9925621,6.45963252 12.1670587,6.95750279 12.2022091,7.62981865 L12.2373595,9.72189243 L9.1579337,10.0758769 L9.1579337,10.0758769 Z M9.1579337,20.2854007 C8.98343709,20.3223272 8.77379008,20.3223272 8.5980381,20.3223272 C7.79460046,20.3223272 7.16565943,20.0358289 6.74511005,19.4691991 C6.29066563,18.9738755 6.04586823,18.2302534 6.04586823,17.2714393 C6.04586823,15.321978 7.09410327,14.0448325 9.15667833,13.4782026 C9.99526637,13.2299042 11.0447568,13.1242182 12.232338,13.1242182 L12.232338,13.9747996 C12.1971876,15.1093326 12.1620372,15.8898811 12.1620372,16.3138985 C12.0578414,17.0931737 11.7778936,17.7680362 11.427645,18.4072456 C10.8363651,19.5073989 10.1019729,20.1084085 9.1579337,20.2854007 L9.1579337,20.2854007 Z M63.5431296,10.0758769 L62.7045415,10.1815629 C61.0964109,10.3942083 59.8033784,10.7494661 58.8593392,11.1391037 C57.4608556,11.7770398 56.4126205,12.6276212 55.6430779,13.7634276 C54.8044899,14.9679935 54.3839405,16.350825 54.3839405,17.9832282 C54.3839405,20.075302 54.9789865,21.706432 56.2017182,22.9097246 C57.2851036,24.0442576 58.7890384,24.5408545 60.6407111,24.5408545 C61.7592469,24.5408545 62.7032862,24.3995154 63.5418742,24.1499436 C63.7866716,24.0799107 64.031469,24.0086045 64.241116,23.9016451 C65.2190503,23.4763544 66.2685407,22.6601528 67.4222269,21.49124 L68.4365669,22.8740715 L69.8350506,24.3294825 C70.2191942,24.5064747 70.5342924,24.4708216 70.8129848,24.2225232 L73.9940957,21.4199337 C74.3430889,21.1741819 74.3430889,20.7488912 73.9940957,20.3236005 L72.9458607,18.6924705 C72.5968675,17.9832282 72.4562659,17.2739859 72.4562659,16.4590576 L72.4562659,9.900158 C72.4562659,7.91377023 72.3520701,6.56659186 72.2817693,5.9643089 C72.0721223,4.61713053 71.4770763,3.48259751 70.6033378,2.66639587 C69.2061096,1.2491846 67.1083841,0.574322087 64.3817176,0.574322087 L63.5431296,0.574322087 C61.6211561,0.680008103 59.9778751,1.14222526 58.6145418,1.95715357 C56.6925683,3.05603347 55.5388821,4.75846966 55.1195881,7.02753569 C54.9802419,7.48847952 55.1898889,7.77115778 55.7146341,7.91377023 L59.6991826,8.30340783 C60.1184766,8.30340783 60.363274,8.05510936 60.4335748,7.52413263 C60.6432218,6.7435841 61.0286208,6.10564803 61.6914569,5.68035732 C62.1810517,5.28944639 62.8099927,5.07680103 63.5443849,5.04242124 C63.6146857,5.00676813 63.6837312,5.00676813 63.754032,5.00676813 C64.8374174,5.00676813 65.640855,5.39640573 66.1304498,6.14130115 C66.3752472,6.45963252 66.5497439,6.95750279 66.5848943,7.62981865 L66.6200447,9.72189243 L63.5431296,10.0758769 L63.5431296,10.0758769 Z M63.5431296,20.2854007 C63.368633,20.3223272 63.158986,20.3223272 62.9844893,20.3223272 C62.1797963,20.3223272 61.5508553,20.0358289 61.1315613,19.4691991 C60.6771169,18.9738755 60.4323195,18.2302534 60.4323195,17.2714393 C60.4323195,15.321978 61.4805545,14.0448325 63.5431296,13.4782026 C64.3817176,13.2299042 65.431208,13.1242182 66.6200447,13.1242182 L66.6200447,13.9747996 C66.5848943,15.1093326 66.5497439,15.8898811 66.5497439,16.3138985 C66.4442927,17.0931737 66.1643449,17.7680362 65.8153516,18.4072456 C65.221561,19.5073989 64.4871688,20.1084085 63.5431296,20.2854007 Z M104.411743,0.750041005 C101.510579,0.750041005 99.1680566,1.92022713 97.4908805,4.22494628 C95.8827499,6.35139985 95.0441618,9.18836905 95.0441618,12.6989274 C95.0441618,16.1738327 95.8827499,18.9751488 97.4908805,21.2085617 C99.1341616,23.5833138 101.475429,24.7547732 104.411743,24.7547732 L104.482043,24.7547732 C107.279011,24.7178468 109.551233,23.548934 111.299965,21.3155211 C112.977141,19.0821081 113.849624,16.350825 113.849624,12.982879 C113.849624,9.40228774 113.011036,6.56531854 111.439311,4.33190562 C109.725729,1.95588025 107.383206,0.75131433 104.482043,0.75131433 L104.411743,0.750041005 Z M104.480788,20.2153678 L104.410487,20.2153678 C102.978109,20.2153678 102.032814,19.2234473 101.544474,17.1657533 C101.334827,16.0312203 101.195481,14.3644372 101.195481,12.0240649 C101.195481,10.1446365 101.334827,8.65484567 101.649926,7.627272 C102.13952,5.99614204 103.08356,5.14556061 104.446893,5.14556061 L104.482043,5.14556061 C105.775076,5.18121372 106.683965,5.92610914 107.139664,7.30894062 C107.558958,8.656119 107.733455,10.5355474 107.733455,12.9816057 C107.733455,15.0023733 107.594109,16.5978501 107.279011,17.6254238 C106.754265,19.3647864 105.810226,20.2153678 104.480788,20.2153678 L104.480788,20.2153678 Z" id="Shape"></path>
            </g>
        </g>
    </g>
</svg>