<?xml version="1.0" encoding="UTF-8"?>
<svg width="165px" height="68px" viewBox="0 0 165 68" version="1.1" xmlns="http://www.w3.org/2000/svg" xmlns:xlink="http://www.w3.org/1999/xlink">
    <!-- Generator: Sketch 56.3 (81716) - https://sketch.com -->
    <title>Cisco Copy 2</title>
    <desc>Created with Sketch.</desc>
    <defs>
        <polygon id="path-1" points="0.0445322138 0.0147827614 118.997031 0.0147827614 118.997031 67.9809544 0.0445322138 67.9809544"></polygon>
    </defs>
    <g id="Cisco-Copy-2" stroke="none" stroke-width="1" fill="none" fill-rule="evenodd">
        <g id="cisco">
            <rect id="Rectangle-Copy-36" x="0" y="0" width="165" height="68"></rect>
            <g id="Cisco" transform="translate(23.000000, 0.000000)">
                <polygon id="Path" fill="#000000" fill-rule="nonzero" points="39.0729313 61 34.0729313 61 34.0729313 42 39.0729313 42 39.0729313 61"></polygon>
                <g id="Group" transform="translate(59.572931, 34.000000) scale(-1, 1) rotate(-180.000000) translate(-59.572931, -34.000000) translate(0.072931, 0.000000)">
                    <g id="Clipped">
                        <mask id="mask-2" fill="white">
                            <use xlink:href="#path-1"></use>
                        </mask>
                        <g id="a"></g>
                        <g id="Group" mask="url(#mask-2)" fill="#000000" fill-rule="nonzero">
                            <g transform="translate(2.417015, 6.871333)" id="Shape">
                                <path d="M75.5309753,14.1759967 C75.3305706,14.2780364 73.7643311,15.2087622 71.4365539,15.2087622 C68.2902007,15.2087622 66.1073315,13.0133625 66.1073315,10.049573 C66.1073315,7.17545474 68.1961647,4.88574568 71.4365539,4.88574568 C73.7242502,4.88574568 75.3166964,5.79791877 75.5309753,5.91232692 L75.5309753,0.720670577 C74.9205118,0.550604408 73.2571531,0.0326756183 71.0958659,0.0326756183 C65.6217355,0.0326756183 60.8166484,3.81742092 60.8166484,10.0511191 C60.8166484,15.8256386 65.163888,20.0618322 71.0958659,20.0618322 C73.3773959,20.0618322 75.0700445,19.505252 75.5309753,19.367653 L75.5309753,14.1759967 Z M24.7314768,14.1759967 C24.5356968,14.2780364 22.9709989,15.2087622 20.6432217,15.2087622 C17.4907022,15.2087622 15.3093745,13.0133625 15.3093745,10.049573 C15.3093745,7.17545474 17.3997493,4.88574568 20.6432217,4.88574568 C22.930918,4.88574568 24.5218227,5.79791877 24.7314768,5.91232692 L24.7314768,0.720670577 C24.1271796,0.550604408 22.4653625,0.0326756183 20.2917427,0.0326756183 C14.8222371,0.0326756183 10.0233162,3.81742092 10.0233162,10.0511191 C10.0233162,15.8256386 14.3705558,20.0618322 20.2932843,20.0618322 C22.5840638,20.0618322 24.2736292,19.505252 24.7314768,19.367653 L24.7314768,14.1759967 L24.7314768,14.1759967 Z M90.8403498,15.1360975 C87.9529811,15.1360975 85.8086512,12.8572109 85.8086512,10.049573 C85.8086512,7.23575093 87.9529811,4.95841031 90.8403498,4.95841031 C93.7246354,4.95841031 95.8751315,7.23575093 95.8751315,10.049573 C95.8751315,12.8572109 93.7246354,15.1360975 90.8403498,15.1360975 L90.8403498,15.1360975 Z M101.031698,10.049573 C101.031698,4.51623827 96.7723278,0.0326756183 90.8418914,0.0326756183 C84.9083718,0.0326756183 80.6551683,4.51623827 80.6551683,10.0511191 C80.6551683,15.5736314 84.9099134,20.0618322 90.8403498,20.0618322 C96.7723278,20.0618322 101.031698,15.5736314 101.031698,10.049573 L101.031698,10.049573 Z M54.7443872,15.3216243 C54.6719332,15.3448151 52.6231809,15.9122177 50.9397817,15.9122177 C48.9896902,15.9122177 47.9290871,15.2566899 47.9290871,14.3275102 C47.9290871,13.1494155 49.3596681,12.7381645 50.1597451,12.4846113 L51.5024564,12.0563538 C54.6626837,11.0483252 56.1009726,8.87920855 56.1009726,6.52301907 C56.1009726,1.66376479 51.8400611,0.0311295622 48.1156176,0.0311295622 C45.5273143,0.0311295622 43.1024179,0.510406949 42.8634739,0.559880744 L42.8634739,5.01252228 C43.2920316,4.90429835 45.333076,4.29206014 47.4589069,4.29206014 C49.8807202,4.29206014 50.9937368,5.00324594 50.9937368,6.09785365 C50.9937368,7.07805321 50.0302529,7.64390974 48.8232002,8.02423953 C48.5303011,8.12318712 48.0863277,8.26233217 47.7841791,8.36127976 C45.0740915,9.22088695 42.8141435,10.8195089 42.8141435,14.019845 C42.8141435,17.6376163 45.5149817,20.0664704 50.000963,20.0664704 C52.3703627,20.0664704 54.5994792,19.4897915 54.7443872,19.4511401 L54.7443872,15.3231703 L54.7443872,15.3216243 Z"></path>
                                <path d="M4.8621254,40.5053319 C4.8621254,41.8380322 3.77685708,42.9187254 2.44647844,42.9187254 C1.11609981,42.9187254 0.029289912,41.8380322 0.029289912,40.5068779 L0.029289912,35.4280837 C0.0624000406,34.1134923 1.13450892,33.0650836 2.44570765,33.0650836 C3.75690639,33.0650836 4.82901527,34.1134923 4.8621254,35.4280837 L4.8621254,40.5053319 L4.8621254,40.5053319 Z M18.1335387,47.1688336 C18.1335387,48.5072642 17.0516716,49.5922765 15.717121,49.5922765 C14.3825703,49.5922765 13.3007032,48.5072642 13.3007032,47.1688336 L13.3007032,35.4280837 C13.3007032,34.0896531 14.3825703,33.0046408 15.717121,33.0046408 C17.0516716,33.0046408 18.1335387,34.0896531 18.1335387,35.4280837 L18.1335387,47.1703797 L18.1335387,47.1688336 Z M31.4064936,56.2874724 C31.4064936,57.6201728 30.3212253,58.702412 28.9908466,58.702412 C27.6589264,58.702412 26.5736581,57.6201728 26.5736581,56.2874724 L26.5736581,30.6028426 C26.6067682,29.2882512 27.6788771,28.2398425 28.9900758,28.2398425 C30.3012746,28.2398425 31.3733834,29.2882512 31.4064936,30.6028426 L31.4064936,56.2874724 L31.4064936,56.2874724 Z M44.6779069,47.1688336 C44.6779069,48.5072642 43.5960398,49.5922765 42.2614891,49.5922765 C40.9269385,49.5922765 39.8450714,48.5072642 39.8450714,47.1688336 L39.8450714,35.4280837 C39.8450714,34.0896531 40.9269385,33.0046408 42.2614891,33.0046408 C43.5960398,33.0046408 44.6779069,34.0896531 44.6779069,35.4280837 L44.6779069,47.1703797 L44.6779069,47.1688336 Z M57.9354465,40.5053319 C57.9362981,41.8367554 56.8612364,42.9170187 55.5336732,42.9187259 C54.2034019,42.9195872 53.1231228,41.8410072 53.1180263,40.5068779 L53.1180263,35.4280837 C53.1180263,34.0939224 54.1964424,33.012371 55.5267361,33.012371 C56.8570299,33.012371 57.9354465,34.0939224 57.9354465,35.4280837 L57.9354465,40.5053319 L57.9354465,40.5053319 Z M71.2130256,47.1688336 C71.1799693,48.4791939 70.1112956,49.5242012 68.8043157,49.5242012 C67.4973359,49.5242012 66.4286622,48.4791939 66.3956059,47.1688336 L66.3956059,35.4280837 C66.3956059,34.0939224 67.474022,33.012371 68.8043157,33.012371 C70.1346095,33.012371 71.2130256,34.0939224 71.2130256,35.4280837 L71.2130256,47.1703797 L71.2130256,47.1688336 Z M84.4936883,56.2874724 C84.4936883,57.6216337 83.4152722,58.7031851 82.0849785,58.7031851 C80.7546847,58.7031851 79.6762686,57.6216337 79.6762686,56.2874724 L79.6762686,30.6028426 C79.6374487,29.7145405 80.087867,28.8765356 80.8491118,28.4207634 C81.6103567,27.9649912 82.5596003,27.9649912 83.3208451,28.4207634 C84.08209,28.8765356 84.5325083,29.7145405 84.4936883,30.6028426 L84.4936883,56.2874724 L84.4936883,56.2874724 Z M97.7712679,47.1688336 C97.7712679,48.50308 96.6937075,49.5868653 95.3324974,49.5868653 C94.00238,49.5860119 92.9245583,48.5043643 92.9245583,47.1703797 L92.9245583,35.4280837 C92.9245583,34.0876531 94.0036603,33.0069599 95.3324974,33.0069599 C96.6937075,33.0069599 97.7712679,34.0876531 97.7712679,35.4280837 L97.7712679,47.1703797 L97.7712679,47.1688336 Z M111.024182,40.5053319 C111.024182,41.8407739 109.944731,42.9233636 108.61316,42.9233636 C107.281589,42.9233636 106.202138,41.8407739 106.202138,40.5053319 L106.202138,35.4280837 C106.202138,34.0876531 107.282781,33.0054138 108.61316,33.0054138 C109.941997,33.0054138 111.022641,34.0876531 111.022641,35.4280837 L111.022641,40.5053319 L111.024182,40.5053319 Z"></path>
                                <path d="M108.238558,2.9238005 L108.238558,2.62077351 L107.378359,2.62077351 L107.378359,0.377446126 L107.023797,0.377446126 L107.023797,2.61922745 L106.160515,2.61922745 L106.160515,2.9238005 L108.238558,2.9238005 L108.238558,2.9238005 Z M108.418922,2.9238005 L108.972347,2.9238005 L109.732343,0.835078728 L109.744676,0.835078728 L110.480007,2.92225445 L111.022641,2.92225445 L111.022641,0.377446126 L110.660371,0.377446126 L110.660371,2.46462184 L110.648038,2.46462184 L109.877251,0.377446126 L109.542729,0.377446126 L108.790441,2.46462184 L108.773484,2.46462184 L108.773484,0.377446126 L108.418922,0.377446126 L108.418922,2.9238005 L108.418922,2.9238005 Z"></path>
                            </g>
                        </g>
                    </g>
                </g>
            </g>
        </g>
    </g>
</svg>