<svg width="124" height="51" viewBox="0 0 124 51" fill="none" xmlns="http://www.w3.org/2000/svg">
<g clip-path="url(#clip0)">
<path d="M48.8326 32.8219C45.614 32.8219 42.6262 31.8566 40.6318 30.0666C39.1251 28.7142 38.4011 26.8772 38.4011 24.9865C38.4011 23.1188 39.1563 21.2691 40.6316 19.9239C42.4838 18.2358 45.7539 17.1787 48.8326 17.1787C52.2397 17.1787 54.9667 18.0369 57.0513 19.9285C58.5345 21.2745 59.2515 23.1159 59.2515 24.9866C59.2515 26.7999 58.4906 28.7309 57.0513 30.0666C55.1101 31.8682 52.0595 32.8219 48.8326 32.8219V30.7586C50.541 30.7586 52.1257 30.1688 53.2324 29.0676C54.3315 27.9739 54.8435 26.6295 54.8435 24.9865C54.8435 23.4125 54.2912 21.9409 53.2324 20.8971C52.1405 19.8216 50.518 19.2164 48.8326 19.2164C47.1421 19.2164 45.5185 19.8154 44.4257 20.8971C43.3727 21.9405 42.8189 23.4164 42.8189 24.9865C42.8189 26.5517 43.3791 28.0267 44.4257 29.0678C45.5194 30.1558 47.1373 30.7588 48.8326 30.7588V32.8221V32.8219ZM25.3075 17.1862C23.5858 17.1862 21.6298 17.5082 19.9678 18.2505C18.4339 18.9349 17.1784 20.0418 17.1784 21.8768C17.1777 23.5295 18.228 24.4974 18.1995 24.4707C18.6463 24.8819 19.3655 25.5822 21.2458 25.9935C22.0862 26.1772 23.8828 26.4595 25.672 26.6465C27.448 26.8338 29.1958 27.0119 29.9076 27.1921C30.4732 27.3361 31.4233 27.5321 31.4233 28.598C31.4233 29.6596 30.4224 29.9836 30.2484 30.0539C30.0746 30.1226 28.8739 30.6735 26.7154 30.6735C25.1218 30.6735 23.2059 30.1943 22.5076 29.9445C21.7026 29.658 20.8581 29.279 20.0704 28.3168C19.8745 28.0783 19.5655 27.4222 19.5655 26.7726H17.612V32.2465H19.7833V31.5069C19.7833 31.4227 19.8886 31.0764 20.2531 31.2411C20.7066 31.4472 22.038 31.9772 23.43 32.2679C24.5713 32.5066 25.3073 32.6777 26.7263 32.6777C29.0414 32.6777 30.2852 32.3005 31.145 32.055C31.955 31.8231 32.9559 31.4067 33.769 30.7583C34.2093 30.4077 35.1749 29.509 35.1749 27.8777C35.1749 26.3119 34.3346 25.3401 34.0389 25.0445C33.6362 24.6416 33.1443 24.3294 32.6317 24.0887C32.1852 23.8785 31.4804 23.626 30.9038 23.4849C29.7845 23.2101 27.2539 22.8711 26.0436 22.7445C24.7746 22.6119 22.5731 22.4296 21.6938 22.1575C21.4273 22.0749 20.8838 21.816 20.8838 21.1851C20.8838 20.7364 21.1323 20.356 21.6235 20.0486C22.4032 19.5601 23.9781 19.2564 25.6197 19.2564C27.5606 19.2493 29.2041 19.693 30.2497 20.1604C30.6053 20.3192 31.0213 20.5472 31.3518 20.817C31.7247 21.121 32.2481 21.7528 32.4374 22.634H34.1913V17.8692H32.233V18.423C32.233 18.6018 32.0483 18.8341 31.6991 18.6421C30.8228 18.1823 28.3449 17.1903 25.3071 17.1862H25.3075ZM68.2231 18.0521L77.776 26.6732L77.6779 20.8688C77.6682 20.1076 77.528 19.7899 76.7048 19.7899H74.9086V18.0535H83.0766V19.7899H81.3245C80.4849 19.7899 80.4319 20.0584 80.4217 20.8688L80.5698 31.9598H77.7726L66.7695 22.1396L66.7719 29.109C66.7815 29.8666 66.817 30.2234 67.5976 30.2234H69.5593V31.959H61.5376V30.2236H63.4128C64.1133 30.2236 64.0854 29.5558 64.0854 29.0696V20.9348C64.0854 20.4097 64.0117 19.7911 62.912 19.7911H61.3904V18.0521H68.2231ZM92.4102 30.2202C92.4869 30.2202 92.8277 30.2104 92.8937 30.1902C93.0823 30.1313 93.2102 29.9968 93.2695 29.8566C93.2944 29.7977 93.3069 29.5372 93.3069 29.4806L93.3084 26.7366C93.3084 26.6706 93.3035 26.642 93.1915 26.495C93.0684 26.3344 88.1878 20.8035 87.9644 20.5599C87.6869 20.2575 87.1998 19.79 86.4598 19.79H84.7625V18.053H94.3412V19.7879H93.1865C92.9194 19.7879 92.7419 20.0413 92.9701 20.3228C92.9701 20.3228 96.1928 24.1779 96.2233 24.2182C96.2533 24.2592 96.279 24.269 96.3201 24.2316C96.3604 24.1932 99.6236 20.3581 99.6493 20.3278C99.8046 20.1419 99.6993 19.7899 99.3648 19.7899H98.1802V18.053H106.031V19.7899H104.277C103.641 19.7899 103.382 19.9076 102.903 20.4488C102.684 20.6964 97.7513 26.3267 97.6171 26.4793C97.5469 26.559 97.5529 26.6702 97.5529 26.7362V29.4799C97.5529 29.5356 97.5654 29.7964 97.5904 29.855C97.6498 29.9959 97.7784 30.1304 97.9668 30.1886C98.0329 30.2089 98.369 30.2189 98.4455 30.2189H100.24V31.9557H90.7102V30.2188L92.4105 30.2202H92.4102Z" fill="black"/>
</g>
<defs>
<clipPath id="clip0">
<rect width="89.209" height="16" fill="white" transform="translate(17 17)"/>
</clipPath>
</defs>
</svg>
