<?xml version="1.0" encoding="UTF-8"?>
<svg width="165px" height="68px" viewBox="0 0 165 68" version="1.1" xmlns="http://www.w3.org/2000/svg" xmlns:xlink="http://www.w3.org/1999/xlink">
    <!-- Generator: Sketch 56.3 (81716) - https://sketch.com -->
    <title>Uber Copy 2</title>
    <desc>Created with Sketch.</desc>
    <g id="Uber-Copy-2" stroke="none" stroke-width="1" fill="none" fill-rule="evenodd">
        <g id="uber">
            <rect id="Rectangle-Copy-29" x="0" y="0" width="165" height="68"></rect>
            <g id="Uber" transform="translate(15.000000, 20.000000)" fill="#000000" fill-rule="nonzero">
                <path d="M21.7841141,0 L26.9450102,0 L26.9450102,16.3665988 C26.9450102,24.9775967 21.4419552,28 13.4582485,28 C5.50305499,28 0,24.9775967 0,16.3665988 L0,0.655804481 C0,0.199592668 0.228105906,0 0.684317719,0 L5.84521385,0 L5.84521385,16.1099796 C5.84521385,21.2708758 8.12627291,23.4093686 13.4582485,23.4093686 C18.8187373,23.4093686 21.0997963,21.2708758 21.0997963,16.1099796 L21.0997963,0.655804481 C21.0997963,0.199592668 21.3279022,0 21.7841141,0 Z M80.2077393,4.47657841 L80.2077393,11.3767821 L93.2668024,11.3767821 C93.4949084,11.3767821 93.5804481,11.490835 93.4949084,11.7189409 L92.0692464,15.2545825 C91.9266802,15.5682281 91.7270876,15.7107943 91.299389,15.7107943 L83.6293279,15.7107943 C81.1201629,15.7107943 80.2077393,16.4806517 80.2077393,18.1629328 L80.2077393,23.0386965 L97.885947,23.0386965 C98.114053,23.0386965 98.1995927,23.1527495 98.114053,23.3808554 L96.6313646,27.0590631 C96.4887984,27.3727088 96.2892057,27.5152749 95.8615071,27.5152749 L76.5010183,27.5152749 C75.0183299,27.5152749 74.4480652,27.0020367 74.4480652,25.8900204 L74.4480652,1.91038697 C74.4480652,0.570264766 75.1894094,0 77.1283096,0 L97.885947,0 C98.114053,0 98.1995927,0.114052953 98.114053,0.313645621 L96.6313646,4.0203666 C96.4887984,4.33401222 96.2892057,4.47657841 95.8615071,4.47657841 L80.2077393,4.47657841 Z M63.8126273,19.9022403 C63.8126273,25.4052953 59.9348269,27.5152749 54.4887984,27.5152749 L40.0610998,27.5152749 C38.5498982,27.5152749 38.0081466,27.0020367 38.0081466,25.8900204 L38.0081466,1.91038697 C38.0081466,0.570264766 38.7209776,0 40.688391,0 L52.407332,0 C57.5397149,0 62.5010183,0.883910387 62.5010183,6.98574338 C62.5010183,9.6089613 61.5600815,11.8329939 59.3075356,13.0020367 C62.4154786,13.8289206 63.8126273,16.6232179 63.8126273,19.9022403 Z M43.6822811,11.4623218 L52.8350305,11.4623218 C55.8574338,11.4623218 56.712831,10.293279 56.712831,7.89816701 C56.712831,5.50305499 55.8574338,4.36252546 52.8350305,4.36252546 L43.6822811,4.36252546 L43.6822811,11.4623218 Z M58.0244399,19.389002 C58.0244399,16.8513238 57.1405295,15.5967413 53.8900204,15.5967413 L47.1323829,15.5967413 C44.6232179,15.5967413 43.6822811,16.3665988 43.6822811,18.0488798 L43.6822811,23.1527495 L53.8900204,23.1527495 C57.1405295,23.1527495 58.0244399,21.898167 58.0244399,19.389002 Z M133.869654,27.5152749 L128.623218,27.5152749 C128.195519,27.5152749 128.02444,27.3441955 127.85336,27.0590631 L122.293279,17.0224033 L117.189409,17.0224033 C114.680244,17.0224033 113.739308,17.7922607 113.739308,19.4745418 L113.739308,27.5152749 L108.720978,27.5152749 C108.264766,27.5152749 108.03666,27.287169 108.03666,26.8594705 L108.03666,1.91038697 C108.03666,0.570264766 108.778004,0 110.716904,0 L122.492872,0 C129.364562,0 133.498982,1.79633401 133.498982,8.46843177 C133.498982,13.6293279 131.01833,15.6537678 127.9389,16.4521385 L134.126273,27.0305499 C134.240326,27.2016293 134.240326,27.5152749 133.869654,27.5152749 Z M127.710794,8.58248473 C127.710794,5.78818737 126.940937,4.41955193 123.348269,4.41955193 L113.739308,4.41955193 L113.739308,12.7454175 L123.348269,12.7454175 C126.940937,12.7454175 127.710794,11.4052953 127.710794,8.58248473 Z" id="Shape"></path>
            </g>
        </g>
    </g>
</svg>