<?xml version="1.0" encoding="UTF-8"?>
<svg width="165px" height="68px" viewBox="0 0 165 68" version="1.1" xmlns="http://www.w3.org/2000/svg" xmlns:xlink="http://www.w3.org/1999/xlink">
    <!-- Generator: Sketch 56.3 (81716) - https://sketch.com -->
    <title>Disney Copy 2</title>
    <desc>Created with Sketch.</desc>
    <g id="Disney-Copy-2" stroke="none" stroke-width="1" fill="none" fill-rule="evenodd">
        <g id="disney">
            <rect id="Rectangle-Copy-36" x="0" y="0" width="165" height="68"></rect>
            <path d="M82.821534,14.456139 C83.6439386,14.4945974 84.4294689,14.8087185 85.051634,15.3479206 C85.8994727,16.1505239 86.1217719,17.4888424 85.7204702,18.5596265 C84.1604987,21.7706861 80.4505584,23.9154853 77.9154432,24.6250332 C76.3987684,24.9817458 74.4814382,24.9817458 73.0985306,24.4466769 C72.4290482,24.8479786 71.8642533,26.1449391 71.0467869,25.6059929 C69.8635608,24.6819004 70.8878171,23.2356635 70.2047642,22.2094685 C70.0638886,21.998155 69.7091146,21.9826458 69.5307583,21.6369189 C68.5937415,19.5851752 69.7537037,17.6226096 71.0467869,16.061992 C73.2025718,13.6567668 79.387529,10.9768987 82.821534,14.456139 L82.821534,14.456139 Z M75.6407541,16.0613458 C74.4362029,16.2842911 73.075913,16.8083743 72.3405163,17.6671987 C71.6044734,18.5253769 71.1366113,19.3622298 71.582502,20.2540113 C73.1437659,19.0946954 73.9017802,17.4888424 75.6414004,16.5078827 C75.6407541,16.3288802 75.9082886,16.195113 75.6407541,16.0613458 Z M82.9113584,16.5078827 C79.8334197,16.2397021 77.5141416,18.5596265 75.3286306,20.7890802 C75.1948634,21.1457929 74.39226,21.5470945 75.0165071,21.9483962 C77.9606785,22.2159307 80.7704365,21.3693845 82.9113584,19.4061727 C83.5362517,18.8265147 83.98085,18.0685004 83.6700189,17.2652508 C83.5362517,16.9537735 83.2215433,16.64165 82.9113584,16.5078827 Z M109.581442,29.7986585 C111.008938,33.2778988 112.212843,38.7630014 109.581442,42.1084745 C108.868017,42.9110779 107.619522,43.650998 106.816919,43.0448451 C103.872748,40.6816241 102.6249,37.2915619 100.796101,34.2582123 C100.528567,34.124445 100.528567,34.4818039 100.3948,34.6155711 C99.7259635,37.6928635 100.974458,41.7071728 98.8787711,44.1149829 C98.0761677,44.2487501 97.3252618,43.8358165 97.0499728,43.0448451 C96.0237778,39.8783745 97.0932694,36.5774904 97.3608038,33.4110198 C97.9856971,31.8051669 98.2532316,29.9324257 99.6361392,28.7278744 C101.866239,29.6196559 102.936377,32.1179366 104.228814,33.9467349 C105.166477,35.3289963 105.923845,36.8902602 106.993983,38.1387543 C107.930353,37.7374526 107.4696,36.5135148 107.44052,35.7748871 C107.082515,32.8759509 106.279911,30.1999601 105.521251,27.4347912 C105.477954,26.721366 105.076653,25.5168147 105.833374,25.070924 C107.843114,25.9633517 108.689014,28.0590383 109.581442,29.7986585 L109.581442,29.7986585 Z M96.1123097,28.7278744 C96.1123097,29.3973568 95.5772408,30.2335635 95.1300576,30.3337274 C90.8488601,31.0025635 86.0765366,30.6012618 82.0628735,31.9389341 C81.9291063,32.4294139 82.5087643,32.5185921 82.8208878,32.6523593 C86.2542466,33.1874282 89.8679004,33.3211954 93.2133736,34.1690341 C94.9820736,34.618156 95.6224761,36.7119039 95.7562433,38.4508778 C95.8383131,39.8221535 95.3109988,41.4835812 93.9720341,42.420598 C90.6724425,44.5169308 85.6325845,44.4271064 82.2864651,42.5104224 C81.0075987,41.7931199 79.7888306,40.6376812 79.6996525,39.2101846 C79.7074071,38.0767173 80.1907785,37.1842896 80.9933819,36.7571392 C84.2050878,35.4634097 88.1741618,36.1781274 90.9399769,37.827277 C91.1170408,38.7197047 90.1515904,38.6712383 89.6895441,38.9872392 C86.6116055,40.7714484 84.2929735,36.981377 81.4386264,38.3623459 C81.0373248,38.6298803 80.7471727,39.3762627 81.2156811,39.6114862 C84.7388643,41.1727501 88.6639954,40.057377 92.1425895,39.0764173 C92.5438912,38.9426501 93.0350173,38.5413484 93.0789601,38.1400467 C92.9451929,36.7125501 91.3399862,36.4010728 90.3137912,35.9997711 C87.2810878,35.2417568 83.9362609,35.2417568 80.6799659,34.9296333 C80.0557189,34.795866 79.2602239,34.360961 79.0747592,33.8594954 C78.7180466,32.7893576 78.7180466,31.3172719 79.52065,30.4254904 C83.6680802,26.7678937 89.9564324,27.0806635 95.2192358,28.0616231 C95.5765946,28.1928055 95.9778963,28.3265727 96.1123097,28.7278744 L96.1123097,28.7278744 Z M76.62236,30.4229055 C77.0236617,34.704103 77.2466071,38.6744694 77.1574289,43.1786123 C77.0682508,43.7576241 76.3994147,43.8920375 75.9535239,44.1149829 C75.2400987,44.2487501 74.3179449,44.0968888 74.0355474,43.7136812 C73.0099987,42.062593 73.3667113,39.8337854 73.2775331,37.8266308 C73.4113004,34.6608064 73.3667113,31.2261551 74.259139,28.2819837 C74.4297407,27.854187 74.9279751,27.4793803 75.3292768,27.7462685 C76.3994147,28.2819837 76.577771,29.3527677 76.62236,30.4229055 L76.62236,30.4229055 Z M126.174394,29.7986585 C126.388938,30.1592484 126.613176,30.7162887 126.174394,30.9579744 C124.167239,31.8497559 121.447306,31.4484543 119.127381,31.7159887 C118.503134,32.2510576 118.012008,33.1428391 118.234307,33.9460887 C118.458545,34.079856 118.658227,34.2834148 118.904436,34.257566 C120.33064,34.3473904 122.472208,33.5887299 123.409871,34.9264022 C123.638633,35.3244728 123.378853,36.8107753 122.741035,36.8443787 C121.000769,37.0686165 118.139313,36.6259568 117.298583,37.0686165 C116.228445,37.7820417 116.316977,39.164303 115.915675,40.2803224 C116.674336,40.7708022 117.468538,40.2686904 118.368075,40.1459089 C120.019809,39.8783745 121.848607,39.3878946 123.497757,39.7446072 C123.80988,40.3242652 124.256417,40.9491585 123.943648,41.6625837 C121.131951,43.8926837 117.505373,46.1783585 113.641633,44.5615199 C112.191518,43.9114241 111.5453,41.7071728 112.036426,39.8350778 C112.347903,38.4967593 113.730164,37.2036761 112.883618,35.7761795 C112.749851,35.1512862 113.10721,34.6168635 113.642279,34.4830963 C115.113718,34.4830963 114.800948,32.654298 115.559609,31.8064593 C114.712417,30.8700887 112.572141,30.9146778 112.795086,29.0412904 C113.821281,28.5062215 115.070422,28.6845778 116.228445,28.5062215 C118.859847,27.9705063 121.803372,27.6583828 124.481301,27.9705063 C125.014432,28.0777786 125.728503,29.1298223 126.174394,29.7986585 Z M62.4837457,19.6297643 C66.5995112,22.9939777 71.9392146,28.7285206 71.2703785,35.3289963 C70.4671289,40.5478568 64.9367911,44.4723417 60.2536457,45.7214821 C55.7042675,47.0591543 49.9955733,46.9253871 45.3563708,45.8552493 C45.0442472,46.703088 44.7321237,47.7279905 43.751164,48.0853493 C43.126917,48.3082947 42.3236674,48.1745275 41.8331876,47.7732258 C40.4509262,46.4794964 41.5656531,43.9818619 39.5584985,43.1799047 C35.6333674,41.5294627 31.3961127,38.2731677 29.3896043,34.2595047 C29.1220698,33.4569013 29.4341934,32.654298 29.9246732,32.0300509 C33.0026119,29.5770055 36.8825077,28.5960458 40.7630497,27.8373853 C40.9859951,27.9265635 40.896817,27.61444 41.0751733,27.5252618 C41.2981187,24.849271 41.3872968,22.128045 42.2344892,19.7195886 C42.4277086,19.3816164 42.9033254,19.2736979 43.2160951,19.4966433 C45.6691405,21.3693845 44.5091783,24.8938601 45.5799624,27.4354374 C50.2631078,27.6583828 54.9462532,27.8813282 58.6477927,30.5133761 C59.896933,31.5389248 60.201302,33.4976131 59.8071087,34.6168635 C59.4135616,35.7341753 58.1127238,36.53484 56.9081725,36.6227257 C56.1049229,36.6227257 54.5888944,36.7009182 54.6780725,36.088303 C54.7672507,35.4750417 57.406407,34.4714644 56.596049,33.6346114 C55.4309171,32.4319988 49.60138,31.7166349 45.9883725,31.2707442 C45.5424817,31.181566 45.1334254,31.3153332 45.1334254,31.8058131 C45.0442472,35.1952291 44.7767128,38.9413577 45.3563708,42.1982989 C45.4009599,42.4218905 45.6684943,42.6894249 45.8920859,42.7327215 C52.2696162,43.7589165 59.0045053,43.1786123 63.9997742,39.5216619 C66.3190524,37.6495669 67.0777129,35.0162265 66.675765,32.1179366 C64.6686104,24.0453752 56.2393364,19.1832273 49.326091,16.0613458 C42.5918481,13.1178205 35.1428875,11.6011457 27.1595043,12.0030936 C25.8883925,12.0961491 23.8741295,12.5349315 23.8592665,12.9846995 C23.8444034,13.4344676 26.1410639,13.2929458 25.8657749,14.1440155 C25.591132,14.994439 23.2569908,14.4897424 22.565537,14.2777827 C21.8740832,14.0658231 21.94129,13.0732315 22.1196463,12.4489844 C23.8592665,9.37169195 28.7136598,9.12289783 30.9062791,9.01497934 C43.0370926,8.70220959 54.7678969,13.3220256 62.4837457,19.6297643 L62.4837457,19.6297643 Z M40.6292825,31.5828677 C37.5513438,31.6274568 34.2956951,31.9395803 31.441348,33.0097181 C30.86169,33.2326635 30.1476186,33.8569106 30.5935093,34.6155711 C31.7528253,36.1761887 33.411022,37.45764 34.9645312,38.3616997 C36.5180405,39.2644669 38.5775388,40.4134434 40.4509262,40.6816241 C40.896817,37.7820417 40.896817,34.9276946 40.8522279,31.9395803 C40.6732254,31.8504022 40.8515817,31.6720459 40.6292825,31.5828677 L40.6292825,31.5828677 Z M132.818812,27.5239694 C132.685045,31.4038652 129.071391,33.8129677 129.071391,37.6928635 C129.205159,37.8266308 129.295629,38.0049871 129.472693,37.9171014 C132.372922,34.7499845 135.226623,30.2451954 139.463877,28.9075232 C140.580543,28.818345 141.58929,29.788319 142.006747,30.5133761 C143.478833,33.4569013 143.123413,37.6049778 141.071023,40.2809686 C138.953365,42.9078468 135.271858,45.543772 131.081131,45.097235 C129.342157,49.3790787 128.135667,53.8838678 127.466831,58.5670132 C127.110118,59.5033838 126.263572,58.6561914 125.728503,58.4778351 C122.116142,55.623488 125.082285,48.0672552 125.327201,47.1030972 C125.572118,46.1415241 126.538861,43.8732972 127.245824,41.974061 C125.550793,38.9420039 126.620931,35.283761 128.003192,32.474003 C129.07333,30.6006156 130.546708,28.7272282 132.285682,27.3003778 C132.506689,27.301024 132.685045,27.3456131 132.818812,27.5239694 L132.818812,27.5239694 Z M140.000885,32.340882 C139.465816,32.2517038 139.242224,32.9657753 138.79698,33.0995425 C136.745882,35.4188207 134.693492,37.7380988 133.667297,40.5032678 C135.050851,40.6816241 136.209521,39.7898425 137.414718,39.2993627 C139.465816,38.0056333 140.759545,35.8660039 140.625778,33.4123123 C140.535954,33.0097181 140.179241,32.6975946 140.000885,32.340882 Z" id="Shape" fill="#000000" fill-rule="nonzero"></path>
        </g>
    </g>
</svg>