<?xml version="1.0" encoding="UTF-8"?>
<svg width="165px" height="68px" viewBox="0 0 165 68" version="1.1" xmlns="http://www.w3.org/2000/svg" xmlns:xlink="http://www.w3.org/1999/xlink">
    <!-- Generator: Sketch 56.3 (81716) - https://sketch.com -->
    <title>Netflix Copy 2</title>
    <desc>Created with Sketch.</desc>
    <g id="Netflix-Copy-2" stroke="none" stroke-width="1" fill="none" fill-rule="evenodd">
        <g id="netflix">
            <rect id="Rectangle-Copy-32" x="0" y="0" width="165" height="68"></rect>
            <g id="Netflix" transform="translate(16.000000, 16.000000)" fill="#000000" fill-rule="nonzero">
                <path d="M113.147275,33.6901325 C114.993225,33.8690722 116.838292,34.0612666 118.67894,34.2600884 L122.742857,24.2253314 L126.605744,35.1857143 C128.587776,35.4340206 130.568925,35.6946981 132.543888,35.966863 L125.771576,16.7469809 L132.546097,0.0176730486 L126.808542,0.0176730486 L126.748895,0.0998527246 L123.089249,9.13740795 L119.876289,0.0189985272 L114.211193,0.0189985272 L120.059647,16.6162003 L113.147717,33.6901325 L113.147275,33.6901325 Z M108.862887,33.2969072 L108.862887,0.0176730486 L103.2,0.0176730486 L103.2,32.8298969 C105.088807,32.9756996 106.978498,33.132106 108.862887,33.2964654 L108.862887,33.2969072 Z M66.3238586,31.4359352 C67.8525773,31.4359352 69.3795287,31.4474227 70.9038292,31.4597938 L70.9038292,19.2335788 L77.7066274,19.2335788 L77.7066274,14.0270987 L70.904271,14.0270987 L70.904271,5.23033873 L78.7391753,5.23033873 L78.7391753,0.0176730486 L65.2192931,0.0176730486 L65.2192931,31.4403535 C65.5864507,31.4403535 65.9553756,31.4346097 66.3238586,31.4359352 L66.3238586,31.4359352 Z M48.7418262,31.7540501 C50.6284242,31.6868925 52.5167894,31.6303387 54.4078056,31.5843888 L54.4078056,5.23122239 L59.7008837,5.23122239 L59.7008837,0.0189985272 L43.4487482,0.0189985272 L43.4487482,5.23122239 L48.7427099,5.23122239 L48.7427099,31.7540501 L48.7418262,31.7540501 Z M5.43225331,35.2630339 L5.43225331,15.4360825 L12.137408,34.4624448 C14.1994109,34.2309278 16.2645066,34.0131075 18.3353461,33.8072165 L18.3353461,0.0181148748 L12.9017673,0.0181148748 L12.9017673,20.5555228 L5.66642121,0.0181148748 L0,0.0181148748 L0,35.9756996 L0.0340206186,35.9756996 C1.82916053,35.7273932 3.63048601,35.491458 5.43225331,35.2630339 L5.43225331,35.2630339 Z M37.988218,5.22989691 L37.988218,0.0181148748 L24.4670103,0.0181148748 L24.4670103,33.2438881 C28.9656437,32.8555518 33.4694679,32.5298943 37.9771723,32.2670103 L37.9771723,27.0503682 C35.3633284,27.2023564 32.7547865,27.3773196 30.15243,27.5721649 L30.15243,19.2357879 L36.9552283,19.2357879 L36.9552283,14.026215 L30.15243,14.026215 L30.15243,5.22989691 L37.988218,5.22989691 Z M89.9620029,26.8011782 L89.9620029,0.01634757 L84.2743741,0.01634757 L84.2743741,31.7730486 C88.7986745,31.9391753 93.3053019,32.1706922 97.7969072,32.4622975 L97.7969072,27.2425626 C95.1901325,27.0742268 92.5789396,26.9279823 89.9620029,26.8007364 L89.9620029,26.8011782 Z" id="Shape"></path>
            </g>
        </g>
    </g>
</svg>